:SAMPLES-PER-SECOND 30
:FULLY-SPECIFIED
:DEGREES
555
root  -15.4865 32.295 3.81089 -62.8513 -79.1112 60.3412
RightUpLeg  -33.3787 -16.7188 -42.1787
RightLeg  50.9577 0.994374 0.958932
RightFoot  12.9018 -6.40356 29.6323
RightToes  -1.16417e-010 0 -3.6325e-017
Spine  38.4382 -0.312236 0.427136
Spine1  4.82741 2.9288 -14.814
HEad  -32.9671 -10.1093 8.77149
LeftShoulder1  0.4383 -1.45153 -0.432847
LeftArm  -51.0933 2.37835 -57.9247
LeftForeArm  -50.2986 -33.7004 -9.58761
LeftHand  0.238757 6.57583 23.6084
RightShoulder  0.596668 0.424401 7.68717
RightArm  -12.0716 -26.2527 10.5435
RightForeArm  21.152 59.2866 17.2469
RightHand  -1.39796 0.0663711 -29.331
LeftUpLeg  -32.166 9.65673 11.9961
LeftLeg  56.235 -6.09103 -9.20469
LeftFoot  -18.5177 -1.48688 -25.1221
LeftToes  6.91183e-011 3.39355e-011 2.1261e-011
556
root  -15.1709 32.7018 2.60305 -46.4944 -84.0368 45.5632
RightUpLeg  -36.5826 -17.5358 -34.2417
RightLeg  50.8392 4.11144 5.0345
RightFoot  12.739 -6.02228 28.1338
RightToes  -1.16417e-010 0 -3.6325e-017
Spine  39.019 -0.708273 -2.28903
Spine1  4.70631 0.891082 -11.2923
HEad  -33.3637 -2.28061 9.50333
LeftShoulder1  0.424094 -2.03248 0.897407
LeftArm  -50.0859 1.03487 -55.6491
LeftForeArm  -46.4817 -35.733 -10.1168
LeftHand  0.443145 7.23842 27.3741
RightShoulder  0.612569 0.606386 7.35667
RightArm  -8.68276 -24.4221 15.7546
RightForeArm  22.5806 58.9843 16.864
RightHand  -1.39073 0.0134522 -29.4557
LeftUpLeg  -32.1436 8.31464 19.0319
LeftLeg  52.0232 -4.70918 -5.96954
LeftFoot  -15.287 -0.880187 -27.716
LeftToes  6.91183e-011 3.39355e-011 2.1261e-011
557
root  -14.934 33.1467 1.3763 158.335 -89.7631 -157.366
RightUpLeg  -39.2697 -17.99 -24.4079
RightLeg  49.3406 7.8221 9.31249
RightFoot  12.0391 -5.27993 25.5347
RightToes  -1.16417e-010 0 -3.6325e-017
Spine  39.3816 -0.917223 -3.42475
Spine1  3.81371 -0.507663 -7.2798
HEad  -33.1613 5.78386 9.52181
LeftShoulder1  0.407541 -2.64791 2.06859
LeftArm  -49.1543 1.61436 -52.2357
LeftForeArm  -39.4432 -38.5461 -10.8327
LeftHand  0.7186 7.95443 31.5259
RightShoulder  0.611051 0.512528 7.71774
RightArm  -6.43405 -22.4437 20.5142
RightForeArm  21.5857 58.0459 16.2817
RightHand  -1.38658 -0.020572 -29.5494
LeftUpLeg  -31.1503 8.02822 27.7509
LeftLeg  47.1381 -3.32561 -3.40029
LeftFoot  -12.1828 -0.158444 -30.7927
LeftToes  6.91183e-011 3.39355e-011 2.1261e-011
558
root  -14.8089 33.5613 0.122993 101.76 -81.7217 -98.9795
RightUpLeg  -40.9643 -19.1468 -13.03
RightLeg  46.9937 11.7873 12.9141
RightFoot  10.7902 -4.44174 22.8174
RightToes  -1.16417e-010 0 -3.6325e-017
Spine  39.0911 -0.679522 -4.33546
Spine1  3.86439 -1.41646 -2.42082
HEad  -33.0502 14.1153 8.72139
LeftShoulder1  0.392592 -3.30469 3.05844
LeftArm  -47.6487 4.56337 -48.1787
LeftForeArm  -29.1428 -42.0205 -11.6857
LeftHand  0.977054 8.44124 35.5947
RightShoulder  0.606392 0.264681 8.70611
RightArm  -6.0119 -19.0271 24.85
RightForeArm  18.7953 55.503 14.8959
RightHand  -1.41371 0.0875138 -29.535
LeftUpLeg  -28.4979 8.35677 37.4461
LeftLeg  41.4908 -1.40126 -0.958549
LeftFoot  -9.0457 0.749265 -33.7584
LeftToes  6.91183e-011 3.39355e-011 2.1261e-011
559
root  -14.7688 33.8141 -1.11726 112.884 -75.1553 -108.8
RightUpLeg  -41.4226 -22.1314 -1.92194
RightLeg  45.0096 16.0927 16.299
RightFoot  8.53546 -3.68768 21.168
RightToes  -1.16417e-010 0 -3.6325e-017
Spine  38.3772 -0.282077 -6.34427
Spine1  4.97336 -2.83258 3.44
HEad  -32.5592 22.655 7.24402
LeftShoulder1  0.374758 -3.46658 3.50118
LeftArm  -44.449 9.78568 -43.462
LeftForeArm  -15.6798 -45.2803 -12.2952
LeftHand  1.27988 8.8713 40.2626
RightShoulder  0.625442 0.165429 9.77615
RightArm  -7.11517 -13.762 29.1382
RightForeArm  14.1813 51.0321 12.8366
RightHand  -1.4918 0.307025 -29.9474
LeftUpLeg  -24.9008 7.82414 46.3726
LeftLeg  36.1859 2.24365 2.10853
LeftFoot  -5.45827 1.9222 -35.7054
LeftToes  6.91183e-011 3.39355e-011 2.1261e-011
560
root  -14.7108 33.7816 -2.25637 114.571 -70.7528 -109.971
RightUpLeg  -41.2206 -25.3195 5.9808
RightLeg  44.5932 19.5767 19.2804
RightFoot  4.47405 -2.95223 21.2895
RightToes  -1.16417e-010 0 -3.6325e-017
Spine  38.1872 -0.0462341 -9.59724
Spine1  5.7567 -5.05892 9.16882
HEad  -31.2516 30.4745 5.84695
LeftShoulder1  0.358458 -3.01969 3.36038
LeftArm  -39.0053 15.7423 -38.4353
LeftForeArm  0.301249 -47.3506 -12.1551
LeftHand  1.76698 9.57475 45.526
RightShoulder  0.658519 0.195192 10.6313
RightArm  -9.33643 -8.71228 33.6442
RightForeArm  8.42507 46.2767 11.1236
RightHand  -1.5779 0.507523 -30.5776
LeftUpLeg  -22.1918 6.0782 52.4239
LeftLeg  33.6127 7.36763 5.61797
LeftFoot  -1.88947 3.10351 -36.2711
LeftToes  6.91183e-011 3.39355e-011 2.1261e-011
